<svg width="14" height="15" viewBox="0 0 14 15" fill="none" xmlns="http://www.w3.org/2000/svg">
<path d="M5.2499 5.75L11.3749 4M11.3749 7.82258V10.0101C11.3748 10.2953 11.2819 10.5727 11.1101 10.8003C10.9384 11.028 10.6971 11.1935 10.4229 11.2718L9.6529 11.4918C9.51939 11.5321 9.37919 11.5455 9.24046 11.5311C9.10173 11.5168 8.96723 11.475 8.84481 11.4082C8.72238 11.3413 8.61447 11.2508 8.52735 11.1419C8.44023 11.033 8.37564 10.9079 8.33734 10.7737C8.29905 10.6396 8.28781 10.4992 8.30428 10.3607C8.32075 10.2223 8.36461 10.0884 8.43329 9.96703C8.50198 9.84564 8.59412 9.73912 8.70435 9.65368C8.81459 9.56824 8.94072 9.50557 9.0754 9.46933L10.4229 9.08433C10.6971 9.006 10.9384 8.84049 11.1101 8.61283C11.2819 8.38518 11.3748 8.10777 11.3749 7.82258ZM11.3749 7.82258V1.8125L5.2499 3.5625V9.57258M5.2499 9.57258V11.7601C5.24984 12.0453 5.1569 12.3227 4.98513 12.5503C4.81336 12.778 4.57212 12.9435 4.2979 13.0218L3.5279 13.2418C3.26123 13.3135 2.97704 13.2775 2.7367 13.1415C2.49635 13.0055 2.31913 12.7804 2.24331 12.5149C2.16748 12.2494 2.19914 11.9647 2.33143 11.7223C2.46373 11.4799 2.68605 11.2992 2.9504 11.2193L4.2979 10.8343C4.57212 10.756 4.81336 10.5905 4.98513 10.3628C5.1569 10.1352 5.24984 9.85777 5.2499 9.57258Z" stroke="black" stroke-linecap="round" stroke-linejoin="round"/>
</svg>
