<svg width="12" height="11" viewBox="0 0 12 11" fill="none" xmlns="http://www.w3.org/2000/svg">
<path d="M1.1875 5.5H10.8125M1.1875 7.6875H10.8125M1.1875 9.875H10.8125M2.28125 1.125H9.71875C10.0088 1.125 10.287 1.24023 10.4921 1.44535C10.6973 1.65047 10.8125 1.92867 10.8125 2.21875C10.8125 2.50883 10.6973 2.78703 10.4921 2.99215C10.287 3.19727 10.0088 3.3125 9.71875 3.3125H2.28125C1.99117 3.3125 1.71297 3.19727 1.50785 2.99215C1.30273 2.78703 1.1875 2.50883 1.1875 2.21875C1.1875 1.92867 1.30273 1.65047 1.50785 1.44535C1.71297 1.24023 1.99117 1.125 2.28125 1.125Z" stroke="black" stroke-linecap="round" stroke-linejoin="round"/>
</svg>
