<svg xmlns="http://www.w3.org/2000/svg" width="18" height="18" viewBox="0 0 18 18">
    <path fill="#EA4335" d="M9 3.48c1.69 0 2.84.73 3.49 1.34l2.38-2.38C13.7.96 11.6 0 9 0 5.48 0 2.44 2.02.96 4.96l2.84 2.2C4.39 5.05 6.53 3.48 9 3.48z"/>
    <path fill="#4285F4" d="M17.64 9.2c0-.64-.06-1.25-.17-1.84H9v3.48h4.84c-.21 1.12-.84 2.07-1.79 2.71l2.74 2.12c1.6-1.47 2.85-3.63 2.85-6.47z"/>
    <path fill="#FBBC05" d="M3.8 10.82a5.52 5.52 0 0 1 0-3.64L.96 4.96a9 9 0 0 0 0 8.08l2.84-2.22z"/>
    <path fill="#34A853" d="M9 18c2.43 0 4.47-.8 5.96-2.17l-2.74-2.12c-.76.51-1.73.82-3.22.82-2.47 0-4.61-1.57-5.38-3.74L.96 13.04C2.44 15.98 5.48 18 9 18z"/>
</svg>
