<svg width="21" height="17" viewBox="0 0 21 17" fill="none" xmlns="http://www.w3.org/2000/svg">
<path d="M0.75 12.25L5.909 7.091C6.11793 6.88206 6.36597 6.71633 6.63896 6.60325C6.91194 6.49018 7.20452 6.43198 7.5 6.43198C7.79548 6.43198 8.08806 6.49018 8.36104 6.60325C8.63403 6.71633 8.88207 6.88206 9.091 7.091L14.25 12.25M12.75 10.75L14.159 9.341C14.3679 9.13206 14.616 8.96633 14.889 8.85325C15.1619 8.74018 15.4545 8.68198 15.75 8.68198C16.0455 8.68198 16.3381 8.74018 16.611 8.85325C16.884 8.96633 17.1321 9.13206 17.341 9.341L20.25 12.25M2.25 16H18.75C19.1478 16 19.5294 15.842 19.8107 15.5607C20.092 15.2794 20.25 14.8978 20.25 14.5V2.5C20.25 2.10218 20.092 1.72064 19.8107 1.43934C19.5294 1.15804 19.1478 1 18.75 1H2.25C1.85218 1 1.47064 1.15804 1.18934 1.43934C0.908035 1.72064 0.75 2.10218 0.75 2.5V14.5C0.75 14.8978 0.908035 15.2794 1.18934 15.5607C1.47064 15.842 1.85218 16 2.25 16ZM12.75 4.75H12.758V4.758H12.75V4.75ZM13.125 4.75C13.125 4.84946 13.0855 4.94484 13.0152 5.01517C12.9448 5.08549 12.8495 5.125 12.75 5.125C12.6505 5.125 12.5552 5.08549 12.4848 5.01517C12.4145 4.94484 12.375 4.84946 12.375 4.75C12.375 4.65054 12.4145 4.55516 12.4848 4.48484C12.5552 4.41451 12.6505 4.375 12.75 4.375C12.8495 4.375 12.9448 4.41451 13.0152 4.48484C13.0855 4.55516 13.125 4.65054 13.125 4.75Z" stroke="white" stroke-width="1.5" stroke-linecap="round" stroke-linejoin="round"/>
</svg>
