<svg width="24" height="25" viewBox="0 0 24 25" fill="none" xmlns="http://www.w3.org/2000/svg">
<g clip-path="url(#clip0_2125_66)">
<path d="M3.94131 2.47064C3.94131 1.38228 3.05901 0.5 1.97065 0.5C0.882291 0.5 0 1.38228 0 2.47064V22.177C0 23.2654 0.882291 24.1476 1.97065 24.1476C3.05901 24.1476 3.94131 23.2654 3.94131 22.177V2.47064Z" fill="#B2B2B2"/>
<path d="M10.0458 2.47064C10.0458 1.38228 9.16351 0.5 8.07514 0.5C6.98678 0.5 6.10449 1.38228 6.10449 2.47064V22.177C6.10449 23.2654 6.98678 24.1476 8.07514 24.1476C9.16351 24.1476 10.0458 23.2654 10.0458 22.177V2.47064Z" fill="#B2B2B2"/>
<path d="M16.5856 2.391C16.2134 1.36829 15.0825 0.84097 14.0598 1.21321C13.0371 1.58545 12.5098 2.71628 12.882 3.739L19.622 22.2569C19.9943 23.2797 21.1251 23.807 22.1479 23.4347C23.1706 23.0625 23.6979 21.9317 23.3257 20.9089L16.5856 2.391Z" fill="#B2B2B2"/>
</g>
<defs>
<clipPath id="clip0_2125_66">
<rect width="24" height="24" fill="white" transform="translate(0 0.5)"/>
</clipPath>
</defs>
</svg>
