<svg width="11" height="13" viewBox="0 0 11 13" fill="none" xmlns="http://www.w3.org/2000/svg">
<path d="M4.2499 4.75L10.3749 3M10.3749 6.82258V9.01008C10.3748 9.29527 10.2819 9.57268 10.1101 9.80033C9.93836 10.028 9.69712 10.1935 9.4229 10.2718L8.6529 10.4918C8.51939 10.5321 8.37919 10.5455 8.24046 10.5311C8.10173 10.5168 7.96723 10.475 7.84481 10.4082C7.72238 10.3413 7.61447 10.2508 7.52735 10.1419C7.44023 10.033 7.37564 9.90786 7.33734 9.77375C7.29905 9.63963 7.28781 9.49924 7.30428 9.36075C7.32075 9.22225 7.36461 9.08841 7.43329 8.96703C7.50198 8.84564 7.59412 8.73912 7.70435 8.65368C7.81459 8.56824 7.94072 8.50557 8.0754 8.46933L9.4229 8.08433C9.69712 8.006 9.93836 7.84049 10.1101 7.61283C10.2819 7.38518 10.3748 7.10777 10.3749 6.82258ZM10.3749 6.82258V0.8125L4.2499 2.5625V8.57258M4.2499 8.57258V10.7601C4.24984 11.0453 4.1569 11.3227 3.98513 11.5503C3.81336 11.778 3.57212 11.9435 3.2979 12.0218L2.5279 12.2418C2.26123 12.3135 1.97704 12.2775 1.7367 12.1415C1.49635 12.0055 1.31913 11.7804 1.24331 11.5149C1.16748 11.2494 1.19914 10.9647 1.33143 10.7223C1.46373 10.4799 1.68605 10.2992 1.9504 10.2193L3.2979 9.83433C3.57212 9.756 3.81336 9.59049 3.98513 9.36283C4.1569 9.13518 4.24984 8.85777 4.2499 8.57258Z" stroke="black" stroke-linecap="round" stroke-linejoin="round"/>
</svg>
