<svg width="14" height="15" viewBox="0 0 14 15" fill="none" xmlns="http://www.w3.org/2000/svg">
<path d="M4.8125 4.4375H11.8125M4.8125 7.5H11.8125M4.8125 10.5625H11.8125M2.1875 4.4375H2.19158V4.44217H2.1875V4.4375ZM2.40625 4.4375C2.40625 4.49552 2.3832 4.55116 2.34218 4.59218C2.30116 4.6332 2.24552 4.65625 2.1875 4.65625C2.12948 4.65625 2.07384 4.6332 2.03282 4.59218C1.9918 4.55116 1.96875 4.49552 1.96875 4.4375C1.96875 4.37948 1.9918 4.32384 2.03282 4.28282C2.07384 4.2418 2.12948 4.21875 2.1875 4.21875C2.24552 4.21875 2.30116 4.2418 2.34218 4.28282C2.3832 4.32384 2.40625 4.37948 2.40625 4.4375ZM2.1875 7.5H2.19158V7.50467H2.1875V7.5ZM2.40625 7.5C2.40625 7.55802 2.3832 7.61366 2.34218 7.65468C2.30116 7.6957 2.24552 7.71875 2.1875 7.71875C2.12948 7.71875 2.07384 7.6957 2.03282 7.65468C1.9918 7.61366 1.96875 7.55802 1.96875 7.5C1.96875 7.44198 1.9918 7.38634 2.03282 7.34532C2.07384 7.3043 2.12948 7.28125 2.1875 7.28125C2.24552 7.28125 2.30116 7.3043 2.34218 7.34532C2.3832 7.38634 2.40625 7.44198 2.40625 7.5ZM2.1875 10.5625H2.19158V10.5672H2.1875V10.5625ZM2.40625 10.5625C2.40625 10.6205 2.3832 10.6762 2.34218 10.7172C2.30116 10.7582 2.24552 10.7812 2.1875 10.7812C2.12948 10.7812 2.07384 10.7582 2.03282 10.7172C1.9918 10.6762 1.96875 10.6205 1.96875 10.5625C1.96875 10.5045 1.9918 10.4488 2.03282 10.4078C2.07384 10.3668 2.12948 10.3437 2.1875 10.3437C2.24552 10.3437 2.30116 10.3668 2.34218 10.4078C2.3832 10.4488 2.40625 10.5045 2.40625 10.5625Z" stroke="black" stroke-linecap="round" stroke-linejoin="round"/>
</svg>
