<svg width="12" height="13" viewBox="0 0 12 13" fill="none" xmlns="http://www.w3.org/2000/svg">
<path d="M8.18741 3C8.18741 3.58016 7.95694 4.13656 7.5467 4.5468C7.13646 4.95703 6.58007 5.1875 5.9999 5.1875C5.41974 5.1875 4.86334 4.95703 4.45311 4.5468C4.04287 4.13656 3.8124 3.58016 3.8124 3C3.8124 2.41984 4.04287 1.86344 4.45311 1.4532C4.86334 1.04297 5.41974 0.8125 5.9999 0.8125C6.58007 0.8125 7.13646 1.04297 7.5467 1.4532C7.95694 1.86344 8.18741 2.41984 8.18741 3ZM1.62549 11.2355C1.64423 10.0877 2.11335 8.99326 2.93167 8.18819C3.75 7.38313 4.85196 6.93194 5.9999 6.93194C7.14785 6.93194 8.24981 7.38313 9.06814 8.18819C9.88646 8.99326 10.3556 10.0877 10.3743 11.2355C9.00197 11.8648 7.50966 12.1895 5.9999 12.1875C4.4389 12.1875 2.95724 11.8468 1.62549 11.2355Z" stroke="#2A2A2A" stroke-width="1.5" stroke-linecap="round" stroke-linejoin="round"/>
</svg>
