<svg width="26" height="29" viewBox="0 0 26 29" fill="none" xmlns="http://www.w3.org/2000/svg">
<path d="M14.0119 3.97427C14.5844 3.36005 15.1669 2.57656 15.1469 1.67492C15.0793 1.49918 14.8736 1.49507 14.7313 1.57853C12.9028 2.18334 10.6363 1.79483 9.14987 0.874382C7.1591 -0.298804 5.23005 1.50741 5.4728 3.22663C5.50571 3.42706 5.5351 3.53168 5.56802 3.68979L7.56114 13.2569C6.9217 12.9908 6.23591 12.854 5.54333 12.8543C2.628 12.8543 0.253418 15.2289 0.253418 18.1442C0.253418 21.0595 2.628 23.4341 5.54333 23.4341C8.45866 23.4341 10.8332 21.0595 10.8332 18.1442C10.8332 18.0143 10.8232 17.8867 10.8138 17.7592C10.8406 17.6127 10.8388 17.4624 10.8086 17.3166L8.34875 5.51011C8.66555 5.58005 8.98706 5.63589 9.32091 5.66646C11.0578 5.82633 12.8228 5.2509 14.0119 3.97427Z" fill="#B2B2B2"/>
<path d="M24.238 9.04019C24.8105 8.42597 25.3929 7.64248 25.3729 6.74084C25.3054 6.5651 25.0996 6.56098 24.9574 6.64445C23.1288 7.24926 20.8624 6.86074 19.3759 5.9403C17.3852 4.76711 15.4561 6.57333 15.6989 8.29255C15.7318 8.49298 15.7612 8.5976 15.7941 8.75571L17.7872 18.3228C17.1478 18.0567 16.462 17.9199 15.7694 17.9202C12.8541 17.9202 10.4795 20.2948 10.4795 23.2101C10.4795 26.1254 12.8541 28.5 15.7694 28.5C18.6847 28.5 21.0593 26.1254 21.0593 23.2101C21.0593 23.0802 21.0493 22.9527 21.0399 22.8251C21.0666 22.6786 21.0648 22.5283 21.0346 22.3825L18.5748 10.576C18.8916 10.646 19.2131 10.7018 19.547 10.7324C21.2838 10.8922 23.0489 10.3168 24.238 9.04019Z" fill="#B2B2B2"/>
<rect x="8.74023" y="8.65601" width="10.9365" height="2.87825" transform="rotate(24.8192 8.74023 8.65601)" fill="#B2B2B2"/>
</svg>
