<svg width="18" height="21" viewBox="0 0 18 21" fill="none" xmlns="http://www.w3.org/2000/svg">
<path d="M11.8239 7.68198L11.4989 16.1365M7.00109 16.1365L6.67606 7.68198M16.0399 4.66652C16.3612 4.71537 16.6806 4.76704 17 4.82246M16.0399 4.66652L15.0367 17.7081C14.9957 18.2391 14.7558 18.735 14.365 19.0968C13.9742 19.4585 13.4612 19.6594 12.9287 19.6592H5.57133C5.03879 19.6594 4.52581 19.4585 4.13498 19.0968C3.74415 18.735 3.50428 18.2391 3.46333 17.7081L2.46006 4.66652M16.0399 4.66652C14.9558 4.50261 13.866 4.37822 12.7727 4.29358M2.46006 4.66652C2.13879 4.71443 1.81939 4.7661 1.5 4.82152M2.46006 4.66652C3.54425 4.50261 4.63404 4.37822 5.72727 4.29358M12.7727 4.29358V3.4331C12.7727 2.32461 11.9179 1.40025 10.8094 1.36549C9.77006 1.33227 8.72994 1.33227 7.69061 1.36549C6.58212 1.40025 5.72727 2.32555 5.72727 3.4331V4.29358M12.7727 4.29358C10.4277 4.11235 8.07226 4.11235 5.72727 4.29358" stroke="#F0675B" stroke-width="2" stroke-linecap="round" stroke-linejoin="round"/>
</svg>
