<svg width="27" height="30" viewBox="0 0 27 30" fill="none" xmlns="http://www.w3.org/2000/svg">
<path d="M14.7412 3.72242C15.3546 3.06434 15.9787 2.22488 15.9573 1.25884C15.8849 1.07055 15.6644 1.06614 15.512 1.15556C13.5529 1.80358 11.1246 1.38731 9.53192 0.401122C7.39895 -0.855859 5.33211 1.07936 5.59219 2.92138C5.62746 3.13613 5.65895 3.24822 5.69421 3.41763L7.8297 13.6681C7.14459 13.383 6.40982 13.2364 5.66777 13.2367C2.5442 13.2367 0 15.7809 0 18.9044C0 22.028 2.5442 24.5722 5.66777 24.5722C8.79133 24.5722 11.3355 22.028 11.3355 18.9044C11.3355 18.7653 11.3248 18.6286 11.3147 18.492C11.3434 18.335 11.3414 18.174 11.3091 18.0177L8.67357 5.36796C9.01301 5.4429 9.35748 5.50273 9.71518 5.53547C11.5761 5.70677 13.4672 5.09024 14.7412 3.72242Z" fill="#6C63FF"/>
<path d="M25.6978 9.15016C26.3111 8.49207 26.9352 7.65261 26.9138 6.68658C26.8414 6.49828 26.621 6.49387 26.4686 6.5833C24.5094 7.23131 22.0811 6.81505 20.4885 5.82886C18.3555 4.57188 16.2887 6.5071 16.5487 8.34912C16.584 8.56386 16.6155 8.67596 16.6508 8.84536L18.7862 19.0958C18.1011 18.8107 17.3664 18.6641 16.6243 18.6644C13.5007 18.6644 10.9565 21.2086 10.9565 24.3322C10.9565 27.4557 13.5007 29.9999 16.6243 29.9999C19.7479 29.9999 22.2921 27.4557 22.2921 24.3322C22.2921 24.193 22.2814 24.0563 22.2713 23.9197C22.2999 23.7627 22.298 23.6017 22.2656 23.4455L19.6301 10.7957C19.9695 10.8706 20.314 10.9305 20.6717 10.9632C22.5326 11.1345 24.4238 10.518 25.6978 9.15016Z" fill="#6C63FF"/>
<rect width="11.7177" height="3.08383" transform="matrix(0.907637 0.419755 -0.419757 0.907636 9.09326 8.73853)" fill="#6C63FF"/>
</svg>
