<svg width="29" height="29" viewBox="0 0 29 29" fill="none" xmlns="http://www.w3.org/2000/svg">
<path d="M23.4936 25L16.1436 17.65C15.5603 18.1167 14.8895 18.4861 14.1311 18.7583C13.3728 19.0306 12.5658 19.1667 11.7103 19.1667C9.59084 19.1667 7.79709 18.4326 6.32904 16.9646C4.86098 15.4965 4.12695 13.7028 4.12695 11.5833C4.12695 9.46389 4.86098 7.67014 6.32904 6.20208C7.79709 4.73403 9.59084 4 11.7103 4C13.8297 4 15.6235 4.73403 17.0915 6.20208C18.5596 7.67014 19.2936 9.46389 19.2936 11.5833C19.2936 12.4389 19.1575 13.2458 18.8853 14.0042C18.6131 14.7625 18.2436 15.4333 17.777 16.0167L25.127 23.3667L23.4936 25ZM11.7103 16.8333C13.1686 16.8333 14.4082 16.3229 15.429 15.3021C16.4499 14.2812 16.9603 13.0417 16.9603 11.5833C16.9603 10.125 16.4499 8.88542 15.429 7.86458C14.4082 6.84375 13.1686 6.33333 11.7103 6.33333C10.252 6.33333 9.01237 6.84375 7.99154 7.86458C6.9707 8.88542 6.46029 10.125 6.46029 11.5833C6.46029 13.0417 6.9707 14.2812 7.99154 15.3021C9.01237 16.3229 10.252 16.8333 11.7103 16.8333Z" fill="#B2B2B2" stroke="#B2B2B2"/>
</svg>
